<?xml version="1.0" encoding="UTF-8" standalone="no"?>
<!-- Created with Inkscape (http://www.inkscape.org/) -->

<svg
   width="210mm"
   height="297mm"
   viewBox="0 0 210 297"
   version="1.1"
   id="svg827"
   inkscape:version="1.1 (c68e22c387, 2021-05-23)"
   sodipodi:docname="Logo.svg"
   xmlns:inkscape="http://www.inkscape.org/namespaces/inkscape"
   xmlns:sodipodi="http://sodipodi.sourceforge.net/DTD/sodipodi-0.dtd"
   xmlns="http://www.w3.org/2000/svg"
   xmlns:svg="http://www.w3.org/2000/svg">
  <sodipodi:namedview
     id="namedview829"
     pagecolor="#ffffff"
     bordercolor="#666666"
     borderopacity="1.0"
     inkscape:pageshadow="2"
     inkscape:pageopacity="0.0"
     inkscape:pagecheckerboard="0"
     inkscape:document-units="mm"
     showgrid="false"
     inkscape:zoom="2.096401"
     inkscape:cx="297.45536"
     inkscape:cy="441.015"
     inkscape:window-width="1920"
     inkscape:window-height="1057"
     inkscape:window-x="1912"
     inkscape:window-y="-8"
     inkscape:window-maximized="1"
     inkscape:current-layer="layer1" />
  <defs
     id="defs824" />
  <g
     inkscape:label="Capa 1"
     inkscape:groupmode="layer"
     id="layer1">
    <path
       style="fill:none;stroke:#000000;stroke-width:0.264583px;stroke-linecap:butt;stroke-linejoin:miter;stroke-opacity:1"
       d="m 74.428484,103.34315 26.594356,45.2684 26.41586,-45.62537 -26.46049,27.5314 z"
       id="path1143"
       inkscape:export-filename="D:\Desarrollo\vue\ValiClaimCheck\valiclaimcheck\src\assets\logoVC.png"
       inkscape:export-xdpi="96"
       inkscape:export-ydpi="96" />
    <path
       style="fill:none;stroke:#000000;stroke-width:0.264583px;stroke-linecap:butt;stroke-linejoin:miter;stroke-opacity:1"
       d="M 107.0021,124.0921 94.782475,103.11223"
       id="path1422"
       inkscape:export-filename="D:\Desarrollo\vue\ValiClaimCheck\valiclaimcheck\src\assets\logoVC.png"
       inkscape:export-xdpi="96"
       inkscape:export-ydpi="96" />
    <path
       style="fill:none;stroke:#000000;stroke-width:0.264583px;stroke-linecap:butt;stroke-linejoin:miter;stroke-opacity:1"
       d="m 101.02284,113.82918 5.97926,-10.75376"
       id="path1424"
       inkscape:export-filename="D:\Desarrollo\vue\ValiClaimCheck\valiclaimcheck\src\assets\logoVC.png"
       inkscape:export-xdpi="96"
       inkscape:export-ydpi="96" />
    <path
       style="fill:none;stroke:#000000;stroke-width:0.264583px;stroke-linecap:butt;stroke-linejoin:miter;stroke-opacity:1"
       d="m 106.95748,124.18134 c 0,0 -12.226465,-0.0891 -12.175005,0 0.05146,0.0891 0,-21.06911 0,-21.06911 l 12.085765,0"
       id="path2827"
       inkscape:export-filename="D:\Desarrollo\vue\ValiClaimCheck\valiclaimcheck\src\assets\logoVC.png"
       inkscape:export-xdpi="96"
       inkscape:export-ydpi="96" />
    <path
       style="fill:#ff0000;stroke:#96c3ed;stroke-width:0.238504"
       d="m 333.4266,478.03129 c -26.56605,-45.22133 -48.25598,-82.2658 -48.19983,-82.32106 0.0562,-0.0553 21.75811,22.07444 48.22658,49.17709 26.46847,27.10266 48.18537,49.25102 48.25978,49.2186 0.0744,-0.0324 21.65631,-22.45451 47.95977,-49.82684 26.30347,-27.37234 47.87589,-49.71565 47.93871,-49.65181 0.11787,0.11979 -95.09944,164.7745 -95.60164,165.3193 -0.22082,0.23956 -10.6864,-17.40621 -48.58337,-81.91528 z"
       id="path3135"
       transform="scale(0.26458333)"
       inkscape:export-filename="D:\Desarrollo\vue\ValiClaimCheck\valiclaimcheck\src\assets\logoVC.png"
       inkscape:export-xdpi="96"
       inkscape:export-ydpi="96" />
    <path
       style="fill:#2b0000;stroke:#96c3ed;stroke-width:0.238504"
       d="m 358.86598,456.77358 c 0.053,-6.49306 0.0706,-23.12911 0.0391,-36.969 -0.0315,-13.8399 -0.0174,-25.6794 0.0313,-26.31001 l 0.0886,-1.14656 22.20285,38.12628 c 12.21157,20.96946 22.1621,38.16639 22.11229,38.21541 -0.0498,0.049 -10.09856,0.0442 -22.33053,-0.0107 l -22.23995,-0.0999 z"
       id="path3211"
       transform="scale(0.26458333)"
       inkscape:export-filename="D:\Desarrollo\vue\ValiClaimCheck\valiclaimcheck\src\assets\logoVC.png"
       inkscape:export-xdpi="96"
       inkscape:export-ydpi="96" />
    <path
       style="fill:#000000;stroke:#96c3ed;stroke-width:0.477008"
       d="m 370.66727,409.48342 -11.08341,-19.01032 10.91155,-0.0404 c 6.00135,-0.0222 15.72399,0.056 21.60586,0.17375 l 10.69431,0.21412 -10.39755,18.7144 c -5.71865,10.29292 -10.45375,18.76938 -10.52245,18.83658 -0.0687,0.0672 -5.11243,-8.43247 -11.20831,-18.88814 z"
       id="path3326"
       transform="scale(0.26458333)"
       inkscape:export-filename="D:\Desarrollo\vue\ValiClaimCheck\valiclaimcheck\src\assets\logoVC.png"
       inkscape:export-xdpi="96"
       inkscape:export-ydpi="96" />
    <path
       style="fill:#000000;stroke:#96c3ed;stroke-width:0.477008"
       d="m 359.25856,440.08091 c -0.0561,-15.47986 -6.3e-4,-32.15093 0.1232,-37.04683 l 0.22514,-8.90162 8.69617,14.93616 c 4.78289,8.21489 14.4628,24.85692 21.5109,36.98229 l 12.81474,22.04612 -2.01257,0.0927 c -1.10692,0.051 -10.84226,0.08 -21.63411,0.0645 l -19.62154,-0.0281 z"
       id="path3365"
       transform="scale(0.26458333)"
       inkscape:export-filename="D:\Desarrollo\vue\ValiClaimCheck\valiclaimcheck\src\assets\logoVC.png"
       inkscape:export-xdpi="96"
       inkscape:export-ydpi="96" />
  </g>
</svg>
